<?xml version="1.0" encoding="utf-8"?>
<!-- Generator: Adobe Illustrator 17.0.0, SVG Export Plug-In . SVG Version: 6.00 Build 0)  -->
<!DOCTYPE svg PUBLIC "-//W3C//DTD SVG 1.1//EN" "http://www.w3.org/Graphics/SVG/1.1/DTD/svg11.dtd">
<svg version="1.1" id="Слой_1" xmlns="http://www.w3.org/2000/svg" xmlns:xlink="http://www.w3.org/1999/xlink" x="0px" y="0px"
	 width="812.671px" height="173.255px" viewBox="-46.093 -199.241 812.671 173.255"
	 enable-background="new -46.093 -199.241 812.671 173.255" xml:space="preserve">
<g>
	<path fill="#FFFFFF" d="M353.65-148.807c-20.356,0-32.798,14.701-32.798,36.189c0,21.111,12.442,36.189,32.798,36.189
		s32.421-14.701,32.421-36.189C386.071-134.101,374.006-148.807,353.65-148.807z"/>
	<path fill="#FFFFFF" d="M-46.093-199.241v173.255h812.671v-173.255H-46.093z M24.542-112.236c0,20.734,11.31,35.812,32.043,35.812
		c14.324,0,22.243-6.787,29.029-13.569c3.769-4.523,9.424-7.164,15.456-7.164c11.31,0,20.356,9.046,20.356,20.356
		c0,5.278-2.264,9.801-5.278,13.569C101.825-47.398,84.86-37.22,56.209-37.22c-44.862,0-78.788-30.912-78.788-75.397
		c0-43.731,33.552-75.02,78.788-75.02c28.275,0,45.617,10.178,59.941,27.898c3.391,3.769,5.655,8.669,5.655,13.947
		c0,11.687-9.424,21.111-21.111,21.111c-6.41,0-12.442-3.014-16.21-7.918c-0.377-0.377-0.377-0.755-0.755-1.132
		c0-0.377-0.377-0.377-0.377-0.755c-6.032-7.918-16.21-13.569-27.143-13.569C35.475-148.052,24.165-133.724,24.542-112.236
		L24.542-112.236z M245.078-134.856c-6.41,1.132-14.701-1.886-18.097-1.886c-12.442,0.377-34.307,9.801-34.307,47.877v27.898
		c0,12.819-10.555,22.997-23.374,22.997s-22.997-10.178-23.374-22.62v-102.163c0.377-12.819,10.555-22.997,23.374-22.997
		c12.442,0,22.62,9.424,23.374,21.488v-0.377c2.637-3.391,17.342-16.588,36.189-18.097c10.555-0.755,15.456,0,22.62,3.769
		c6.032,3.391,10.933,9.424,12.442,16.965C266.188-149.557,257.897-137.12,245.078-134.856L245.078-134.856z M353.65-37.594
		c-44.862,0-79.543-31.289-79.543-75.02s34.684-75.397,79.543-75.397c44.862,0,79.165,31.289,79.165,75.397
		C432.815-68.883,398.512-37.594,353.65-37.594z M504.443-112.236c0,20.734,11.31,35.812,32.044,35.812
		c14.324,0,22.243-6.787,29.029-13.569c3.769-4.523,9.424-7.164,15.456-7.164c11.31,0,20.356,9.046,20.356,20.356
		c0,5.278-2.264,9.801-5.278,13.569C581.727-47.398,564.762-37.22,536.11-37.22c-44.862,0-78.788-30.912-78.788-75.397
		c0-43.731,33.552-75.02,78.788-75.02c28.275,0,45.617,10.178,59.941,27.898c3.391,3.391,5.655,8.669,5.655,13.947
		c0,11.687-9.424,21.111-21.111,21.111c-6.41,0-12.442-3.014-16.21-7.918c-0.377-0.377-0.377-0.755-0.755-1.132
		c0-0.377-0.377-0.377-0.377-0.755c-6.032-7.918-16.21-13.569-27.143-13.569C515.377-148.052,504.067-133.724,504.443-112.236
		L504.443-112.236z M684.266-37.971c-27.898,0-45.99-8.292-58.432-19.602c0-0.377-0.377-0.377-0.755-0.755l-1.132-1.132
		c0-0.377-0.377-0.755-0.755-1.132c-0.377-0.377-0.755-1.132-1.132-1.509c0-0.377-0.377-0.377-0.377-0.755
		c-3.391-6.787-2.637-15.079,3.014-21.111c6.787-7.164,18.097-7.541,25.257-0.755l-0.377-0.377
		c9.046,7.541,19.979,11.687,31.666,11.687c14.701,0,19.602-2.637,19.602-8.669c0-7.918-9.046-7.918-32.421-13.947
		c-19.979-4.9-41.844-15.833-41.844-45.99c0-32.421,24.88-45.617,55.795-45.617c23.752,0,40.713,7.541,52.4,19.602
		c3.769,3.014,6.032,7.918,6.032,13.196c0,9.801-7.919,17.719-17.719,17.719c-4.523,0-9.046-1.886-12.065-4.9
		c-6.787-6.032-16.965-10.933-27.898-10.933c-10.555,0-15.456,2.641-15.456,8.292c0,8.292,9.046,9.046,28.652,13.569
		c21.111,4.9,47.499,14.701,47.122,44.862C743.453-59.459,729.502-37.971,684.266-37.971L684.266-37.971z"/>
</g>
</svg>
